<?xml version="1.0" encoding="utf-8"?>
<svg aria-hidden="true" role="img" class="iconify iconify--logos" width="31.88" height="32" preserveAspectRatio="xMidYMid meet" viewBox="0 0 256 257" xmlns="http://www.w3.org/2000/svg">
  <defs>
    <linearGradient id="IconifyId1813088fe1fbc01fb466" x1="-.828%" x2="57.636%" y1="7.652%" y2="78.411%" gradientTransform="matrix(1.214473, 0.331522, 0.287622, 1.338698, -0.020233, -0.023172)">
      <stop offset="0" stop-color="#41D1FF"/>
      <stop offset="1" stop-color="#BD34FE"/>
    </linearGradient>
    <linearGradient id="IconifyId1813088fe1fbc01fb467" x1="43.376%" x2="50.316%" y1="2.242%" y2="89.03%" gradientTransform="matrix(0.998308, -0.025987, -0.004338, 0.789443, 0.000832, 0.015993)">
      <stop offset="0" stop-color="#FFEA83"/>
      <stop offset="0.0833" stop-color="#FFDD35"/>
      <stop offset="1" stop-color="#FFA800"/>
    </linearGradient>
  </defs>
  <path fill="url(#IconifyId1813088fe1fbc01fb466)" d="M 239.546 88.246 L 71.796 174.37 C 69.313 178.81 58.616 71.511 56.096 67.093 L 14.875 54.958 C 201.85 203.727 100.749 160.273 203.661 169.884 L 140.853 71.123 C 112.014 121.838 82.577 143.426 83.345 143.286 L 146.316 208.773 C 151.754 207.782 242.243 83.422 239.546 88.246 Z"/>
  <path fill="url(#IconifyId1813088fe1fbc01fb467)" d="M 116.648 63.426 L 123.262 39.538 C 121.799 39.825 97.894 25.027 97.806 26.515 L 81.846 99.233 C 81.717 101.411 95.437 111.121 97.563 110.63 L 106.303 59.884 C 108.621 59.349 125.519 118.138 125.042 120.469 L 62.785 80.032 C 62.29 82.458 68.268 33.953 70.637 33.233 L 135.286 64.976 C 137.658 64.256 179.413 131.101 178.911 133.529 L 177.699 184.599 C 176.967 188.141 133.567 221.529 135.531 218.493 L 215.179 99.271 L 205.042 87.782 C 206.257 85.359 126.444 120.222 123.784 120.736 L 191.418 77.546 C 189.022 78.008 142.572 21.497 143.248 19.153 L 218.491 37.932 C 219.168 35.582 191.832 5.593 189.433 6.063 L 116.648 63.426 Z"/>
</svg>